<svg xmlns="http://www.w3.org/2000/svg" width="120" height="36" viewBox="0 0 120 36">
  <rect x="0.5" y="0.5" rx="8" ry="8" width="119" height="35" fill="#020617"/>
  <rect x="0.5" y="0.5" rx="8" ry="8" width="119" height="35" fill="none" stroke="rgba(148,163,184,0.5)"/>
  <g transform="translate(10 7)">
    <linearGradient id="gp-a" x1="0" y1="0" x2="1" y2="1">
      <stop offset="0%" stop-color="#0ea5e9"/>
      <stop offset="50%" stop-color="#22c55e"/>
      <stop offset="100%" stop-color="#facc15"/>
    </linearGradient>
    <path d="M0.5 3.2c0-.9.7-1.6 1.6-1.6.3 0 .6.1.8.3l7.5 6.1c.5.4.5 1.2 0 1.6l-7.5 6.1c-.2.2-.5.3-.8.3-.9 0-1.6-.7-1.6-1.6V3.2z" fill="url(#gp-a)"/>
    <path d="M9.3 7.3L5.4 3.4l4.7 2.2c.4.2.7.6.7 1.1 0 .5-.3.9-.7 1.1L5.4 10l3.9-3z" fill="#f97316"/>
  </g>
  <text x="32" y="15" fill="#e5e7eb" font-family="system-ui, -apple-system, BlinkMacSystemFont, 'SF Pro Text', sans-serif" font-size="8">
    Disponible en
  </text>
  <text x="32" y="25" fill="#f9fafb" font-family="system-ui, -apple-system, BlinkMacSystemFont, 'SF Pro Display', sans-serif" font-size="11" font-weight="600">
    Google Play
  </text>
</svg>
