<svg xmlns="http://www.w3.org/2000/svg" viewBox="0 0 48 48">
  <linearGradient id="wa" x1="9.858" x2="38.142" y1="9.858" y2="38.142" gradientUnits="userSpaceOnUse">
    <stop offset="0" stop-color="#60f36f"/>
    <stop offset="1" stop-color="#07c755"/>
  </linearGradient>
  <path fill="url(#wa)" d="M24 4A20 20 0 0 0 6.18 34.26l-2.1 7.66 7.84-2.06A20 20 0 1 0 24 4z"/>
  <path fill="#FFF" d="M35.2 29.39c-.53-.26-3.14-1.55-3.63-1.73-.49-.18-.84-.26-1.2.26-.35.51-1.37 1.73-1.68 2.08-.31.35-.62.39-1.15.13-.53-.26-2.23-.82-4.25-2.62-1.57-1.4-2.63-3.13-2.94-3.66-.31-.53-.03-.82.23-1.07.24-.24.53-.62.79-.93.26-.31.35-.53.53-.88.18-.35.09-.66-.04-.93-.13-.26-1.2-2.88-1.64-3.96-.43-1.04-.86-.9-1.2-.92l-.93-.02c-.31 0-.82.12-1.25.61-.43.49-1.64 1.6-1.64 3.9 0 2.3 1.68 4.53 1.91 4.84.26.35 3.3 5.05 8.17 7.08 4.87 2.03 4.87 1.36 5.74 1.28.88-.09 2.88-1.17 3.29-2.3.4-1.13.4-2.1.31-2.3-.09-.22-.4-.35-.93-.62z"/>
</svg>
